<svg xmlns="http://www.w3.org/2000/svg" viewBox="0 0 64 64" role="img" aria-label="WhatsApp">
  <path fill="#ffffff" d="M32.03 6.4A25.54 25.54 0 0 0 10.37 45.5L7.4 57.6l12.36-2.83A25.54 25.54 0 1 0 32.03 6.4Zm0 4.86a20.68 20.68 0 0 1 17.6 31.53 20.7 20.7 0 0 1-26.65 7.35l-.95-.49-7.32 1.68 1.71-7.08-.53-.97a20.68 20.68 0 0 1 16.14-32.02Zm-8.38 9.75c-.47 0-1.21.18-1.85.87-.63.69-2.42 2.37-2.42 5.76s2.48 6.68 2.82 7.14c.34.46 4.79 7.69 11.83 10.45 5.86 2.3 7.04 1.84 8.32 1.72 1.27-.12 4.11-1.68 4.69-3.3.58-1.61.58-3 .4-3.3-.17-.29-.64-.47-1.35-.82l-3.97-1.94c-.71-.35-1.22-.52-1.74.29-.51.76-1.98 2.42-2.42 2.91-.45.52-.9.58-1.66.2-.75-.4-3.18-1.16-6.05-3.72-2.23-1.99-3.73-4.43-4.18-5.18-.45-.75-.04-1.16.34-1.53.34-.34.75-.88 1.12-1.3.37-.45.49-.75.73-1.25.24-.5.12-.93-.06-1.31l-1.82-4.37c-.48-1.16-.98-1-1.37-1.02-.35-.02-.76-.02-1.17-.02Z"/>
</svg>
